HIERARCHY
ROOT RootJoint
{
    OFFSET   0.000000   0.000000   0.000000
    CHANNELS 6 Xposition Yposition Zposition Xrotation Yrotation Zrotation
    JOINT pelvis_lowerback
    {
        OFFSET   0.000000   0.093605   0.000000
        CHANNELS 3 Xrotation Yrotation Zrotation
        JOINT lowerback_torso
        {
            OFFSET   0.000000   0.100000   0.000000
            CHANNELS 3 Xrotation Yrotation Zrotation
            JOINT torso_head
            {
                OFFSET   0.000000   0.282350   0.000000
                CHANNELS 3 Xrotation Yrotation Zrotation
                End Site
                {
                    OFFSET   0.000000   0.192650   0.000000
                }
            }
            JOINT rTorso_Clavicle
            {
                OFFSET  -0.001000   0.157500   0.000000
                CHANNELS 3 Xrotation Yrotation Zrotation
                JOINT rShoulder
                {
                    OFFSET  -0.117647   0.000000   0.000000
                    CHANNELS 3 Xrotation Yrotation Zrotation
                    JOINT rElbow
                    {
                        OFFSET  -0.245000   0.000000   0.000000
                        CHANNELS 3 Xrotation Yrotation Zrotation
                        JOINT rWrist
                        {
                            OFFSET  -0.240000   0.000000   0.000000
                            CHANNELS 3 Xrotation Yrotation Zrotation
                            End Site
                            {
                                OFFSET  -0.116353  -0.002500   0.000000
                            }
                        }
                    }
                }
            }
            JOINT lTorso_Clavicle
            {
                OFFSET   0.001000   0.157500   0.000000
                CHANNELS 3 Xrotation Yrotation Zrotation
                JOINT lShoulder
                {
                    OFFSET   0.117647   0.000000   0.000000
                    CHANNELS 3 Xrotation Yrotation Zrotation
                    JOINT lElbow
                    {
                        OFFSET   0.245000   0.000000   0.000000
                        CHANNELS 3 Xrotation Yrotation Zrotation
                        JOINT lWrist
                        {
                            OFFSET   0.240000   0.000000   0.000000
                            CHANNELS 3 Xrotation Yrotation Zrotation
                            End Site
                            {
                                OFFSET   0.116353  -0.002500   0.000000
                            }
                        }
                    }
                }
            }
        }
    }
    JOINT rHip
    {
        OFFSET  -0.100000  -0.051395   0.000000
        CHANNELS 3 Xrotation Yrotation Zrotation
        JOINT rKnee
        {
            OFFSET   0.000000  -0.410000   0.000000
            CHANNELS 3 Xrotation Yrotation Zrotation
            JOINT rAnkle
            {
                OFFSET   0.000000  -0.390000   0.000000
                CHANNELS 3 Xrotation Yrotation Zrotation
                JOINT rToeJoint
                {
                    OFFSET   0.000000  -0.050000   0.130000
                    CHANNELS 3 Xrotation Yrotation Zrotation
                    End Site
                    {
                        OFFSET  -0.010000   0.002000   0.060000
                    }
                }
            }
        }
    }
    JOINT lHip
    {
        OFFSET   0.100000  -0.051395   0.000000
        CHANNELS 3 Xrotation Yrotation Zrotation
        JOINT lKnee
        {
            OFFSET   0.000000  -0.410000   0.000000
            CHANNELS 3 Xrotation Yrotation Zrotation
            JOINT lAnkle
            {
                OFFSET   0.000000  -0.390000   0.000000
                CHANNELS 3 Xrotation Yrotation Zrotation
                JOINT lToeJoint
                {
                    OFFSET   0.000000  -0.050000   0.130000
                    CHANNELS 3 Xrotation Yrotation Zrotation
                    End Site
                    {
                        OFFSET   0.010000   0.002000   0.060000
                    }
                }
            }
        }
    }
}
MOTION
Frames: 12
Frame Time:   0.008333
 -2.376719   0.925631   3.975860   0.000000   0.000000   0.000000   0.000000   0.000000   0.000000   0.000000   0.000000   0.000000   0.000000   0.000000   0.000000   0.000000   0.000000   0.000000   0.000000   0.000000   0.000000   0.000000   0.000000   0.000000   0.000000   0.000000   0.000000   0.000000   0.000000   0.000000   0.000000   0.000000   0.000000   0.000000   0.000000   0.000000   0.000000   0.000000   0.000000   0.000000   0.000000   0.000000   0.000000   0.000000   0.000000   0.000000   0.000000   0.000000   0.000000   0.000000   0.000000   0.000000   0.000000   0.000000   0.000000   0.000000   0.000000   0.000000   0.000000   0.000000   0.000000   0.000000   0.000000
 -2.376784   0.926320   3.974718  -0.591254   0.274021  -0.211320   0.957564  -0.020723   0.215793   0.096121  -0.144229   0.071776  -0.356228   0.061851   0.125285  -0.019664  -0.159209   0.343937   0.120850  -0.016307   2.104662   0.017082   0.775529  -0.003921   0.053491  -0.439830  -2.860427   0.015276  -0.108061  -0.647054   0.355558  -0.153557  -1.999359   0.013239  -0.587776   0.004353   0.027530   0.509465   2.986955  -0.073459  -0.195014   0.127005   1.922319   0.001438   0.001298  -1.571293  -0.520419  -0.125336  -0.148638  -0.000270   0.000571  -0.140302  -0.225175   0.387524   2.039128  -0.003125   0.000954  -1.299855  -0.140290  -0.003177   0.414350  -0.000630  -0.000330
 -2.376872   0.927451   3.973397  -1.286267   0.623351  -0.439859   1.963802  -0.062803   0.447567   0.342390  -0.329134   0.169158  -0.661472   0.125095   0.268673  -0.031526  -0.253959   1.436588   0.235620   0.033444   4.809314   0.039575   1.536671  -0.007694   0.120808  -0.632684  -4.957793   0.030519  -0.333617  -2.072262   0.692029  -0.427186  -4.629876   0.031435  -1.184545   0.008411   0.074082   0.770077   5.186201  -0.114707  -0.387709   0.169769   3.956925   0.004648   0.003568  -3.035084  -1.010337  -0.258111  -0.339749  -0.000748   0.001012  -0.207230  -0.434709   0.912018   4.191023  -0.007866   0.003898  -2.502805  -0.270134  -0.008678   0.790252  -0.001454  -0.000195
 -2.376973   0.928582   3.972025  -1.964135   0.997888  -0.652297   2.938773  -0.121328   0.668243   0.619965  -0.529725   0.264393  -0.935275   0.184377   0.410624  -0.043246  -0.285420   2.991309   0.340897   0.136494   7.910359   0.061945   2.265011  -0.010635   0.195658  -0.686781  -6.181128   0.031503  -0.634492  -3.959018   0.997914  -0.784008  -7.640484   0.049999  -1.768231   0.011579   0.131537   0.845288   6.471113  -0.175528  -0.569230   0.111469   5.883218   0.008677   0.005477  -4.400575  -1.465563  -0.394991  -0.516765  -0.001233   0.001219  -0.244754  -0.624013   1.516085   6.234161  -0.012772   0.007471  -3.623427  -0.388881  -0.015682   1.137319  -0.002303   0.000129
 -2.377118   0.929382   3.970676  -2.599699   1.371221  -0.842550   3.871192  -0.189335   0.867306   0.895986  -0.735542   0.339843  -1.189300   0.239273   0.549003  -0.059657  -0.268710   4.818682   0.434071   0.279782  11.264884   0.081435   2.957618  -0.012709   0.276789  -0.651718  -6.739409   0.012723  -0.982423  -6.139231   1.257775  -1.184930 -10.759509   0.066264  -2.332662   0.013810   0.200303   0.788731   7.014928  -0.265451  -0.739094  -0.034116   7.674726   0.012729   0.006548  -5.677260  -1.888380  -0.533958  -0.687564  -0.001702   0.001315  -0.264680  -0.797068   2.177876   8.145164  -0.017280   0.010892  -4.670220  -0.497938  -0.023747   1.447837  -0.003051   0.000479
 -2.377279   0.929594   3.969403  -3.189355   1.729969  -1.015199   4.758071  -0.261526   1.049037   1.161711  -0.939764   0.409197  -1.426263   0.289862   0.675287  -0.082902  -0.220461   6.832235   0.509740   0.444260  14.623691   0.096381   3.613025  -0.013954   0.361039  -0.559054  -6.765229  -0.027944  -1.351817  -8.467456   1.472806  -1.608628 -13.882106   0.079012  -2.872819   0.015218   0.275967   0.648193   7.053948  -0.380979  -0.897066  -0.250512   9.336616   0.016403   0.006778  -6.871368  -2.280876  -0.673210  -0.852251  -0.002129   0.001350  -0.268658  -0.957215   2.882621   9.930673  -0.021081   0.013830  -5.648335  -0.598342  -0.032403   1.724510  -0.003642   0.000783
 -2.377440   0.929030   3.968245  -3.734625   2.067511  -1.172348   5.597876  -0.335124   1.217218   1.414286  -1.139144   0.474071  -1.646890   0.336493   0.791508  -0.113333  -0.157104   8.918728   0.569123   0.616748  17.908812   0.106488   4.229915  -0.014464   0.444559  -0.436150  -6.452213  -0.089278  -1.722666 -10.841258   1.646439  -2.038091 -16.940063   0.087904  -3.385560   0.015928   0.353347   0.459761   6.768431  -0.516386  -1.042824  -0.524382  10.878865   0.019474   0.006335  -7.988183  -2.645114  -0.811411  -1.009456  -0.002491   0.001347  -0.256667  -1.106561   3.616248  11.600531  -0.024070   0.016175  -6.562031  -0.691046  -0.041402   1.972305  -0.004069   0.001020
 -2.377462   0.927003   3.965977  -3.931894   2.220805  -1.315937   6.399994  -0.336046   1.415262   1.441672  -1.270406   0.499038  -2.017138   0.284329   0.799938  -0.137666   0.147165  10.470140   0.608641   0.779822  20.911283   0.108031   4.788588  -0.015271   0.395313  -0.454433  -5.205224  -0.149620  -2.164742 -12.449680   1.566956  -2.404936 -20.081534   0.090326  -3.861401   0.015853   0.289768   0.299226   5.585091  -1.428902  -1.345651  -0.848758  13.197229   0.024014  -0.000836  -8.949323  -3.075004  -0.814355  -0.893270  -0.001515   0.000467  -0.699226  -1.191913   4.267290  13.030696  -0.024850   0.016205  -7.595478  -0.559694   0.075524   2.106983  -0.003970   0.001188
 -2.377435   0.923764   3.963479  -4.100131   2.365867  -1.449638   7.230023  -0.335613   1.616928   1.480985  -1.383104   0.523816  -2.371877   0.229766   0.800770  -0.198546   0.513244  11.730508   0.617633   0.988356  23.585114   0.105706   5.328376  -0.016044   0.352873  -0.434133  -4.078825  -0.245842  -2.635322 -13.768530   1.460403  -2.781926 -22.899458   0.089097  -4.319261   0.015846   0.222974   0.109282   4.476214  -2.346255  -1.640089  -1.175872  15.417554   0.026522  -0.006789  -9.837263  -3.480307  -0.824714  -0.745821  -0.000625  -0.000392  -1.194090  -1.283510   4.869061  14.289257  -0.024369   0.015841  -8.566300  -0.438035   0.187672   2.207631  -0.003674   0.001219
 -2.377385   0.919441   3.960964  -4.251335   2.508484  -1.576097   8.048598  -0.325690   1.814926   1.538470  -1.480736   0.552222  -2.694227   0.178273   0.801895  -0.284190   0.894960  12.779068   0.603082   1.213625  25.988858   0.100962   5.845929  -0.016531   0.321037  -0.352384  -3.180163  -0.367232  -3.104491 -14.876324   1.334320  -3.151864 -25.441659   0.085556  -4.757097   0.015642   0.163659  -0.118642   3.583883  -3.211861  -1.909576  -1.493639  17.486116   0.027353  -0.011015 -10.666218  -3.858412  -0.840889  -0.607121   0.000023  -0.000991  -1.712006  -1.377861   5.428343  15.427491  -0.023195   0.015307  -9.474265  -0.326975   0.294307   2.296978  -0.003350   0.001207
 -2.377329   0.914122   3.958541  -4.387663   2.646612  -1.695920   8.837583  -0.304460   2.006013   1.604912  -1.563100   0.583281  -2.987608   0.130221   0.803460  -0.383819   1.269212  13.667233   0.572525   1.437398  28.166867   0.094712   6.336547  -0.016637   0.294736  -0.234054  -2.468585  -0.501462  -3.551290 -15.821712   1.196950  -3.499730 -27.751034   0.080532  -5.170604   0.015135   0.108000  -0.361811   2.876045  -4.016013  -2.155442  -1.796974  19.412514   0.026997  -0.013832 -11.440788  -4.210702  -0.861547  -0.480066   0.000470  -0.001375  -2.237190  -1.473499   5.947350  16.467057  -0.021630   0.014632 -10.322703  -0.225434   0.395534   2.378314  -0.003027   0.001170
 -2.377229   0.911837   3.956287  -4.686901   2.598589  -1.285721   9.768721  -0.231742   1.755187   1.755539  -1.603454   0.438137  -3.268631   0.085919   0.790985  -0.513675   1.672293  14.711864   0.517861   1.680110  30.264882   0.089080   6.801850  -0.016677   0.271029  -0.089826  -1.919628  -0.650986  -3.988982 -16.805515   1.049605  -3.827056 -29.878898   0.075455  -5.553450   0.014578   0.051968  -0.583127   2.394876  -4.614663  -2.326041  -2.536622  21.164537   0.024156  -0.017656 -12.153753  -4.541224  -0.887171  -0.284016   0.000909  -0.002231  -3.009864  -1.503463   5.519007  18.353338  -0.016714   0.012388 -11.059190  -0.236448   0.163827   1.892501  -0.003451   0.000970
